<svg id="Layer_1" data-name="Layer 1" xmlns="http://www.w3.org/2000/svg" viewBox="0 0 24 24" stroke-width="1.5" width="24" height="24" color="#000000"><defs><style>.cls-63ce7403ea57ea6c83800521-1{fill:none;stroke:#FFF;stroke-miterlimit:10;}</style></defs><rect class="cls-63ce7403ea57ea6c83800521-1" x="8.18" y="12.95" width="7.64" height="9.55"></rect><rect class="cls-63ce7403ea57ea6c83800521-1" x="15.82" y="16.77" width="6.68" height="5.73"></rect><rect class="cls-63ce7403ea57ea6c83800521-1" x="1.5" y="18.68" width="6.68" height="3.82"></rect><path class="cls-63ce7403ea57ea6c83800521-1" d="M9.14,1.5h5.73a0,0,0,0,1,0,0V4.36A2.86,2.86,0,0,1,12,7.23h0A2.86,2.86,0,0,1,9.14,4.36V1.5a0,0,0,0,1,0,0Z"></path><line class="cls-63ce7403ea57ea6c83800521-1" x1="9.14" y1="10.09" x2="14.86" y2="10.09"></line><line class="cls-63ce7403ea57ea6c83800521-1" x1="12" y1="7.23" x2="12" y2="10.09"></line><line class="cls-63ce7403ea57ea6c83800521-1" x1="17.73" y1="3.41" x2="14.86" y2="3.41"></line><line class="cls-63ce7403ea57ea6c83800521-1" x1="9.14" y1="3.41" x2="6.27" y2="3.41"></line></svg>